Coordinates
version=1
nRows=24
nColumns=22
inDegrees=yes

Units are S.I. units (second, meters, Newtons, ...)
If the header above contains a line with 'inDegrees', this indicates whether rotational values are in degrees (yes) or radians (no).

endheader
time	pelvis_tilt	pelvis_list	pelvis_rotation	pelvis_tx	pelvis_ty	pelvis_tz	hip_flexion_r	hip_adduction_r	hip_rotation_r	knee_angle_r	ankle_angle_r	subtalar_angle_r	hip_flexion_l	hip_adduction_l	hip_rotation_l	knee_angle_l	ankle_angle_l	subtalar_angle_l	lumbar_extension	lumbar_bending	lumbar_rotation
      0.01000000	      1.39148833	     -1.57680200	     -0.49943001	      1.05413104	      0.93188985	     -0.00954618	      6.15806407	      0.48039342	    -12.16410493	    -21.92883705	     13.14860048	     -0.21163388	      7.53815815	     -3.16039857	     -7.56039045	    -24.62958429	     14.56439261	     -2.74938270	    -10.93840567	     -0.73289220	     -4.40333833
      0.02000000	      1.39346648	     -1.59570447	     -0.46770431	      1.05386005	      0.93197104	     -0.00985903	      6.15540406	      0.48095525	    -12.19620340	    -21.89824809	     13.13326846	     -0.20852214	      7.55718757	     -3.15705260	     -7.53084061	    -24.62362075	     14.51673191	     -2.76565168	    -10.95811874	     -0.70095025	     -4.35774428
      0.03000000	      1.40482842	     -1.62144734	     -0.41171072	      1.05354084	      0.93208849	     -0.01026388	      6.13427312	      0.48673380	    -12.24055257	    -21.84904530	     13.05476901	     -0.19756503	      7.56782178	     -3.15180613	     -7.47282670	    -24.60608425	     14.45376909	     -2.80691967	    -10.99110890	     -0.65282682	     -4.35552529
      0.04000000	      1.41167104	     -1.62714592	     -0.37378420	      1.05318512	      0.93218362	     -0.01067351	      6.12036035	      0.47220464	    -12.26250807	    -21.79754804	     13.03018525	     -0.19265406	      7.59175062	     -3.12889984	     -7.45116549	    -24.60729052	     14.43456393	     -2.82141274	    -11.01984915	     -0.63443553	     -4.30398116
      0.05000000	      1.46029854	     -1.65230122	     -0.30668217	      1.05284124	      0.93237216	     -0.01114789	      6.03704779	      0.47769037	    -12.32252535	    -21.70364878	     12.92961420	     -0.16147714	      7.56042869	     -3.11729062	     -7.38326761	    -24.58074160	     14.37897702	     -2.90064660	    -11.09636687	     -0.58754394	     -4.30246032
      0.06000000	      1.46441571	     -1.66110679	     -0.27892698	      1.05249403	      0.93246374	     -0.01157118	      6.02127849	      0.46671937	    -12.34893294	    -21.64114697	     12.90853529	     -0.15746079	      7.57690208	     -3.09599607	     -7.36450143	    -24.56557550	     14.34990258	     -2.91404848	    -11.11788952	     -0.56888692	     -4.23497107
      0.07000000	      1.51883745	     -1.68049249	     -0.22714988	      1.05223024	      0.93265382	     -0.01203827	      5.92056311	      0.46980064	    -12.38952414	    -21.53471552	     12.81261831	     -0.13522159	      7.52476970	     -3.08055625	     -7.31808513	    -24.52746176	     14.28983103	     -2.96776231	    -11.18548745	     -0.53213256	     -4.20471685
      0.08000000	      1.51705529	     -1.68556372	     -0.20537566	      1.05200648	      0.93271765	     -0.01245009	      5.89719958	      0.45601511	    -12.41899546	    -21.46074057	     12.80069917	     -0.13143276	      7.53400657	     -3.05908751	     -7.31403561	    -24.50577872	     14.27716520	     -2.97318117	    -11.17760154	     -0.52170747	     -4.13301656
      0.09000000	      1.54929344	     -1.70855707	     -0.18628109	      1.05186743	      0.93285395	     -0.01284419	      5.81757266	      0.46790518	    -12.43537940	    -21.35808669	     12.71745919	     -0.11556436	      7.47845379	     -3.05318277	     -7.28915021	    -24.44154632	     14.22612178	     -2.99307836	    -11.19920552	     -0.49061070	     -4.06547675
      0.10000000	      1.54911949	     -1.70877768	     -0.17186894	      1.05176067	      0.93289496	     -0.01322317	      5.78220198	      0.45136842	    -12.46081244	    -21.27969577	     12.70757509	     -0.10989160	      7.47993651	     -3.03165044	     -7.30068725	    -24.42616113	     14.22763019	     -2.99384500	    -11.17588695	     -0.49102593	     -4.00486169
      0.11000000	      1.55100877	     -1.71763040	     -0.16503384	      1.05170101	      0.93293747	     -0.01358208	      5.74322335	      0.44502036	    -12.48149661	    -21.20217813	     12.68560248	     -0.10258719	      7.46548384	     -3.01844110	     -7.30655497	    -24.39225860	     14.22026482	     -2.99541995	    -11.14708350	     -0.48268112	     -3.93546297
      0.12000000	      1.60800449	     -1.74718268	     -0.17494492	      1.05166790	      0.93308052	     -0.01389732	      5.63997074	      0.47055039	    -12.45010537	    -21.11419386	     12.59259959	     -0.06853802	      7.37289030	     -3.02721874	     -7.31360736	    -24.33254939	     14.19579828	     -3.00040434	    -11.18061984	     -0.45256043	     -3.85354500
      0.13000000	      1.61863777	     -1.75150648	     -0.16618647	      1.05158552	      0.93310361	     -0.01424443	      5.61101120	      0.45623679	    -12.46731407	    -21.07259411	     12.58993177	     -0.06174709	      7.37264711	     -3.01091195	     -7.31696554	    -24.34005348	     14.19748147	     -3.00052503	    -11.16298668	     -0.45177573	     -3.80692789
      0.14000000	      1.64008698	     -1.76576391	     -0.16059522	      1.05146006	      0.93314033	     -0.01457904	      5.58480834	      0.45195996	    -12.47758440	    -21.05170705	     12.57484301	     -0.05293764	      7.36520296	     -3.00291756	     -7.30307927	    -24.34994177	     14.19027743	     -3.00455745	    -11.16372787	     -0.43953554	     -3.75505118
      0.15000000	      1.67313360	     -1.78351747	     -0.15255014	      1.05126399	      0.93318465	     -0.01491454	      5.56528663	      0.44991037	    -12.47992910	    -21.05792099	     12.55232588	     -0.04389760	      7.35896333	     -2.99734092	     -7.27882776	    -24.37629868	     14.18014000	     -3.01277192	    -11.18878112	     -0.42135632	     -3.72247028
      0.16000000	      1.71047849	     -1.80086920	     -0.14110908	      1.05100974	      0.93322792	     -0.01525434	      5.55392064	      0.44522252	    -12.48529507	    -21.08100013	     12.53087191	     -0.03653019	      7.35899981	     -2.99037212	     -7.24826196	    -24.41390373	     14.17026107	     -3.02382160	    -11.22740635	     -0.40177209	     -3.70272131
      0.17000000	      1.77135582	     -1.82880369	     -0.10140223	      1.05073830	      0.93330782	     -0.01564053	      5.51704049	      0.44331037	    -12.55460512	    -21.10672140	     12.48090511	     -0.00987458	      7.33937606	     -2.99082963	     -7.19040408	    -24.45179231	     14.15780988	     -3.07387167	    -11.29738671	     -0.36190594	     -3.72132173
      0.18000000	      1.81185125	     -1.83880927	     -0.08967053	      1.05039945	      0.93333855	     -0.01596759	      5.52514931	      0.43048639	    -12.53981953	    -21.16144505	     12.47241104	     -0.00729915	      7.34998737	     -2.97607351	     -7.15085225	    -24.50611814	     14.15350360	     -3.08420166	    -11.35292860	     -0.35028678	     -3.71640912
      0.19000000	      1.85542641	     -1.84970990	     -0.07385138	      1.05005634	      0.93336866	     -0.01628830	      5.53845291	      0.41564931	    -12.54706345	    -21.23448746	     12.45974858	     -0.00596095	      7.35620150	     -2.96379853	     -7.11373210	    -24.55630983	     14.14696200	     -3.09879093	    -11.41355262	     -0.33487340	     -3.72519820
      0.20000000	      1.90524562	     -1.84729249	     -0.02964614	      1.04974593	      0.93340839	     -0.01665885	      5.54177864	      0.37360213	    -12.63984894	    -21.31145051	     12.44416052	      0.00080282	      7.35139464	     -2.93286304	     -7.05812564	    -24.59424209	     14.14180286	     -3.15040375	    -11.47609645	     -0.32806320	     -3.77829153
      0.21000000	      1.94323647	     -1.85547203	     -0.02120749	      1.04942173	      0.93343192	     -0.01693005	      5.55908201	      0.36240826	    -12.62212016	    -21.38002648	     12.43786040	      0.00015708	      7.35133479	     -2.92180623	     -7.02937779	    -24.62727787	     14.13749803	     -3.16025079	    -11.52554504	     -0.31747560	     -3.80306124
      0.22000000	      1.98243787	     -1.85696253	     -0.01083766	      1.04910903	      0.93345673	     -0.01718655	      5.57612184	      0.34197549	    -12.62484704	    -21.45321463	     12.42858780	     -0.00197326	      7.34574191	     -2.90647385	     -7.01050791	    -24.65377168	     14.13495448	     -3.17005073	    -11.57343983	     -0.31379183	     -3.84220796
      0.23000000	      2.02891332	     -1.83154582	      0.01672393	      1.04883859	      0.93349932	     -0.01747025	      5.57745901	      0.28288004	    -12.69015464	    -21.52254152	     12.42628268	     -0.00595523	      7.32093463	     -2.85770640	     -6.98088754	    -24.65801990	     14.12656187	     -3.19581890	    -11.62010845	     -0.33834364	     -3.91288657
      0.24000000	      2.05755560	     -1.83810354	      0.01552211	      1.04855957	      0.93352224	     -0.01765610	      5.59311044	      0.27644135	    -12.67383678	    -21.57266339	     12.42418496	     -0.00810649	      7.30801333	     -2.85192097	     -6.97210920	    -24.65575590	     14.12029191	     -3.20067616	    -11.64518063	     -0.33139128	     -3.96142505
